<?xml version="1.0" encoding="UTF-8"?>
<svg version="1.1" xmlns="http://www.w3.org/2000/svg" width="512" height="512">
<path d="M0 0 C0.99 0.66 1.98 1.32 3 2 C3.1875 5.625 3.1875 5.625 3 9 C4.546875 8.87625 4.546875 8.87625 6.125 8.75 C10.69122939 9.04459544 12.65544437 9.90016795 16 13 C16.5625 16.0625 16.5625 16.0625 16 19 C14.46484375 20.68359375 14.46484375 20.68359375 13 22 C13.63615234 22.98613281 13.63615234 22.98613281 14.28515625 23.9921875 C26.6591733 44.06257119 37.18667411 73.80167694 31.75 97.5 C31.09571394 105.35143275 35.55420706 109.57631936 40.25390625 115.3125 C44.66656995 120.70851675 48.51473986 126.4517537 52.375 132.25 C53.04007568 133.23129883 53.70515137 134.21259766 54.39038086 135.22363281 C62.37648282 147.19727395 67.85412671 156.37658322 66 171 C61.27523829 190.97662409 41.38005247 205.62646359 25 216 C14.69432143 222.32993338 3.86063184 227.69966505 -7 233 C-5.35 235.97 -3.7 238.94 -2 242 C9.78800186 237.97917981 21.4828929 233.73638521 33.125 229.3125 C34.34469482 228.84932373 35.56438965 228.38614746 36.82104492 227.90893555 C39.14612359 227.0223489 41.46899539 226.12994668 43.78930664 225.23095703 C45.84705659 224.44203031 47.9135101 223.67523288 49.98999023 222.93701172 C50.88145752 222.61104004 51.7729248 222.28506836 52.69140625 221.94921875 C53.46170166 221.67811279 54.23199707 221.40700684 55.02563477 221.12768555 C58.2548486 219.28327616 59.39267021 216.40516493 60.9140625 213.125 C62.72409751 209.58306099 65.52332558 207.73833721 69 206 C76.09469548 205.3021611 76.09469548 205.3021611 80 208.3125 C82 211 82 211 82 214 C83.051875 213.896875 84.10375 213.79375 85.1875 213.6875 C89 214 89 214 91.875 216.0625 C94.43175566 219.59683871 95 221.64826225 95 226 C93.5 229.3125 93.5 229.3125 92 232 C92.33 232.66 92.66 233.32 93 234 C93.56460345 238.1404253 93.19641772 239.69959643 90.875 243.25 C87.75902701 246.2304959 86.19525339 247.1932205 82 248 C80.70320313 247.86851562 79.40640625 247.73703125 78.0703125 247.6015625 C71.24756385 247.57536359 66.21449014 251.4623377 60.625 255 C59.45516707 255.71958139 58.28399774 256.43699421 57.11157227 257.15234375 C54.66063087 258.65031752 52.21578451 260.15756901 49.77490234 261.671875 C44.13706496 265.16059494 38.43908122 268.54825131 32.73675537 271.93017578 C30.95684379 272.98849832 29.18150971 274.05417913 27.40673828 275.12109375 C26.33278809 275.76175781 25.25883789 276.40242188 24.15234375 277.0625 C23.20351318 277.63097656 22.25468262 278.19945312 21.27709961 278.78515625 C19 280 19 280 17 280 C17.33209473 280.78310547 17.33209473 280.78310547 17.67089844 281.58203125 C30.00705299 310.9012581 30.00705299 310.9012581 29 325 C46.91510486 319.77661335 62.89578537 313.52229044 72.47265625 296.36108398 C74.47331597 292.48614671 76.40713222 288.58091314 78.32421875 284.6640625 C84.16741859 273.07016731 91.03299609 263.94548172 103.125 258.625 C109.5770289 257.22238502 114.17121827 257.86972833 120 261 C124.34539033 264.53694562 127.52288547 268.56548239 129 274 C130.71027779 291.13732892 125.90760962 304.43109734 115.26293945 317.87060547 C101.75333977 334.33877184 82.16433547 345.28467159 61 348 C48.96408409 348.64638497 37.5994468 348.45963269 26 345 C25.94671036 345.79427902 25.89342072 346.58855804 25.83851624 347.40690613 C25.2873208 355.12957595 24.45273511 362.76086337 23.37109375 370.42578125 C23.21713638 371.53938522 23.06317902 372.6529892 22.90455627 373.80033875 C22.41919857 377.30491256 21.92845137 380.8087059 21.4375 384.3125 C21.10445852 386.7102366 20.77177312 389.10802268 20.43945312 391.50585938 C19.63041044 397.33781702 18.8169596 403.1691464 18 409 C19.15580566 409.43022461 19.15580566 409.43022461 20.33496094 409.86914062 C23.58727706 411.24920001 25.65808751 413.10985315 28.25 415.5 C29.12140625 416.2940625 29.9928125 417.088125 30.890625 417.90625 C33.46670988 420.46325277 33.94192356 421.31760185 34.25 424.9375 C34 428 34 428 32.875 429.75 C23.95005846 435.69996103 9.69123483 434.99889818 -0.4375 433.1875 C-4.13042183 432.31892479 -7.10211499 431.55695736 -10 429 C-13.69651732 422.52732273 -15.63120371 415.93816685 -17.5 408.75 C-17.80043213 407.61643066 -18.10086426 406.48286133 -18.41040039 405.31494141 C-21.02215131 395.28598679 -23.14761564 385.19386673 -25 375 C-25.62946533 375.1429248 -26.25893066 375.28584961 -26.9074707 375.43310547 C-34.72644112 377.04868268 -42.22386285 377.23661971 -50.1875 377.125 C-51.42564453 377.11597656 -52.66378906 377.10695313 -53.93945312 377.09765625 C-56.95984511 377.07433276 -59.97981399 377.04160477 -63 377 C-63.08636719 378.15628906 -63.17273438 379.31257813 -63.26171875 380.50390625 C-63.99448088 387.06539973 -65.65760421 393.41429988 -67.27368164 399.80151367 C-67.80991624 401.92725745 -68.33226076 404.05608692 -68.85351562 406.18554688 C-73.9591866 426.74763168 -73.9591866 426.74763168 -79 431 C-90.10330834 435.5422625 -103.54917068 435.11432174 -115 432 C-117.39430789 430.80284605 -119.13489257 429.86510743 -121 428 C-121.62757225 424.78369224 -121.50466807 422.76673605 -119.68359375 420 C-115.92310556 415.55808106 -111.92437281 412.08980255 -107 409 C-106.34 409 -105.68 409 -105 409 C-106.13554687 400.95804758 -107.27421079 392.91654505 -108.41673851 384.87558174 C-108.94729644 381.14089797 -109.47682288 377.40607429 -110.00390625 373.67089844 C-110.51363558 370.05898674 -111.02618636 366.44748522 -111.54060745 362.83623886 C-111.73533042 361.46584885 -111.92907604 360.09531957 -112.12177658 358.72464371 C-112.98441788 352.59272233 -113.85463912 346.48852984 -115.12304688 340.42578125 C-115.82775828 337.04835951 -116.23917079 333.89449256 -116.1953125 330.4296875 C-116.18886719 329.51445312 -116.18242187 328.59921875 -116.17578125 327.65625 C-116.15064453 326.27953125 -116.15064453 326.27953125 -116.125 324.875 C-116.11597656 323.91851562 -116.10695313 322.96203125 -116.09765625 321.9765625 C-116.07439827 319.65076475 -116.04172213 317.32552706 -116 315 C-119.4598713 318.1514549 -121.4877613 320.26619052 -122.4375 324.875 C-123.80198396 329.91077505 -125.54080689 334.01436315 -130 337 C-134.78077434 337.99494069 -139.29203907 336.99114967 -144 336 C-145.134375 336.0825 -146.26875 336.165 -147.4375 336.25 C-152.18743901 335.91667095 -153.85628923 334.51796205 -157 331 C-158.02273869 327.0454104 -158.29223576 324.87670727 -157 321 C-157.61875 320.814375 -158.2375 320.62875 -158.875 320.4375 C-161 319 -161 319 -162.4375 315.8125 C-163.13165725 311.10765639 -162.38454593 309.07680432 -160 305 C-156.86527491 301.46079425 -153.59903421 300.53345643 -149.1875 299.25 C-142.71838001 297.22047216 -139.28568891 294.12955243 -135 289 C-133.98131379 287.8106576 -132.96044262 286.62318349 -131.9375 285.4375 C-131.37933594 284.78652344 -130.82117188 284.13554687 -130.24609375 283.46484375 C-127.11253956 280.02610863 -123.80491012 276.77325926 -120.5 273.5 C-115.45036673 268.49387164 -110.57994386 263.44317936 -106 258 C-104.13017703 255.91821329 -102.26007081 253.83680473 -100.3828125 251.76171875 C-98.79261994 249.93952679 -98.79261994 249.93952679 -98 247 C-98.86496094 246.98582031 -99.72992188 246.97164062 -100.62109375 246.95703125 C-124.08286936 246.06850955 -153.44813433 241.21439348 -171.4375 224.6953125 C-177.74164162 217.85531884 -181.23577615 210.80566444 -181.14306641 201.3762207 C-180.8579565 196.64076893 -179.91172493 192.02341307 -179 187.375 C-178.78722412 186.26431152 -178.57444824 185.15362305 -178.35522461 184.00927734 C-177.0628288 177.5279954 -175.55924829 171.13779484 -173.81640625 164.765625 C-173.53740982 163.74421921 -173.53740982 163.74421921 -173.2527771 162.70217896 C-172.33328665 159.36030265 -171.38973913 156.02715345 -170.41601562 152.70068359 C-170.07376953 151.49234863 -169.73152344 150.28401367 -169.37890625 149.0390625 C-169.0651001 147.96865723 -168.75129395 146.89825195 -168.42797852 145.79541016 C-167.94342822 142.63049234 -168.27518466 141.62399302 -170 139 C-175.41032877 129.13880963 -178.8054165 120.01702974 -181 109 C-181.22558594 107.92878906 -181.45117188 106.85757813 -181.68359375 105.75390625 C-183.07113291 97.93584077 -183.20144907 90.17478397 -183.25 82.25 C-183.2593457 81.19627197 -183.26869141 80.14254395 -183.27832031 79.05688477 C-183.25140789 72.47731535 -182.56020336 66.39363518 -181 60 C-181.804375 59.855625 -182.60875 59.71125 -183.4375 59.5625 C-186 59 -186 59 -187 58 C-187.5625 54.875 -187.5625 54.875 -187 51 C-185.02830962 49.04100291 -182.9084098 47.41490269 -180.71484375 45.7109375 C-180.14894531 45.14632812 -179.58304687 44.58171875 -179 44 C-178.79172045 40.63776466 -178.79172045 40.63776466 -180 38 C-176.99401025 34.79361093 -174.67696984 33.66440649 -170.375 33.5 C-156.17523147 34.17019556 -143.62067795 43.50380192 -132.125 51.125 C-131.16883789 51.75595581 -131.16883789 51.75595581 -130.19335938 52.3996582 C-126.80293227 54.67197522 -123.77653498 57.06391211 -120.75 59.8125 C-118.54113358 61.46564739 -117.58777444 62.03575014 -114.81640625 61.8671875 C-113.01399543 61.37792154 -111.23213764 60.81056039 -109.46875 60.1953125 C-105.13847018 58.70312148 -100.76558855 57.62177782 -96.3125 56.5625 C-95.42143555 56.34899902 -94.53037109 56.13549805 -93.61230469 55.91552734 C-86.63567953 54.28699559 -79.62862421 52.98667299 -72.5625 51.8125 C-71.03713623 51.54904785 -71.03713623 51.54904785 -69.48095703 51.28027344 C-65.21900888 50.56867223 -61.08468376 49.9146968 -56.7578125 49.90625 C-50.58191237 49.79672675 -50.58191237 49.79672675 -45.55615234 46.52832031 C-42.38002253 42.42677531 -39.90294236 37.93290965 -37.39160156 33.40625 C-35.08390086 29.41595208 -32.42996301 25.68402994 -29.75 21.9375 C-29.24098145 21.22295654 -28.73196289 20.50841309 -28.20751953 19.7722168 C-13.40592815 -0.83787051 -13.40592815 -0.83787051 0 0 Z " fill="#A73D31" transform="translate(285,37)"/>
<path d="M0 0 C7.43053835 6.69290826 13.8071062 14.16660453 20 22 C20.90992485 23.12103811 21.82146104 24.24076972 22.734375 25.359375 C74.7600826 89.33327816 74.7600826 89.33327816 73.453125 105.7890625 C69.49579562 125.09810068 53.70440901 137.7279386 38.75830078 148.85180664 C37 150 37 150 34 151 C33.72027344 150.04480469 33.44054687 149.08960938 33.15234375 148.10546875 C27.79721175 130.53415577 18.31452748 118.04001246 2.23046875 108.6875 C-5.20045445 104.80580856 -12.51707858 102.66380573 -20.78515625 101.39453125 C-23 101 -23 101 -25 100 C-49.71572792 97.54921237 -70.81265467 104.38648082 -90 120 C-101.08719936 129.46468238 -107.49907829 140.9369755 -111 155 C-111.17724609 155.61447998 -111.35449219 156.22895996 -111.53710938 156.86206055 C-112.06383076 159.29481327 -112.11283053 161.49579372 -112.09765625 163.984375 C-112.09443359 164.91894531 -112.09121094 165.85351562 -112.08789062 166.81640625 C-112.07951172 167.78449219 -112.07113281 168.75257813 -112.0625 169.75 C-112.05798828 170.73355469 -112.05347656 171.71710938 -112.04882812 172.73046875 C-112.03706483 175.15370791 -112.02062684 177.57682273 -112 180 C-129.07391916 178.07169553 -148.85381682 172.3344749 -160.734375 159.0625 C-166.49853241 151.81613069 -167.44483552 145.60593484 -166.60546875 136.51171875 C-165.64647957 128.47096334 -163.61725699 120.60934699 -161.68066406 112.75927734 C-161.04239265 110.17185141 -160.42132376 107.58093302 -159.8046875 104.98828125 C-156.86491067 92.77793533 -153.41190472 80.72814403 -149.80810547 68.69873047 C-149.10614265 66.35447156 -148.41350444 64.00770403 -147.72265625 61.66015625 C-145.44406693 54.02844921 -142.82410556 46.53143226 -140.0625 39.0625 C-139.75062744 38.19794189 -139.43875488 37.33338379 -139.11743164 36.44262695 C-135.06878174 25.73192932 -129.86693649 18.84654917 -120 13 C-119.17371094 12.49855469 -118.34742188 11.99710938 -117.49609375 11.48046875 C-91.04264958 -3.11320714 -26.96713936 -20.10083606 0 0 Z " fill="#E26254" transform="translate(275,97)"/>
<path d="M0 0 C3 2.3125 3 2.3125 5 5 C5 5.99 5 6.98 5 8 C6.051875 7.896875 7.10375 7.79375 8.1875 7.6875 C12 8 12 8 14.875 10.0625 C17.43175566 13.59683871 18 15.64826225 18 20 C16.5 23.3125 16.5 23.3125 15 26 C15.33 26.66 15.66 27.32 16 28 C16.56460345 32.1404253 16.19641772 33.69959643 13.875 37.25 C10.75902701 40.2304959 9.19525339 41.1932205 5 42 C3.70320312 41.86851562 2.40640625 41.73703125 1.0703125 41.6015625 C-5.75243615 41.57536359 -10.78550986 45.4623377 -16.375 49 C-17.54483293 49.71958139 -18.71600226 50.43699421 -19.88842773 51.15234375 C-22.33936913 52.65031752 -24.78421549 54.15756901 -27.22509766 55.671875 C-32.86293504 59.16059494 -38.56091878 62.54825131 -44.26324463 65.93017578 C-46.04315621 66.98849832 -47.81849029 68.05417913 -49.59326172 69.12109375 C-50.66721191 69.76175781 -51.74116211 70.40242188 -52.84765625 71.0625 C-53.79648682 71.63097656 -54.74531738 72.19945312 -55.72290039 72.78515625 C-58 74 -58 74 -60 74 C-59.77860352 74.52207031 -59.55720703 75.04414063 -59.32910156 75.58203125 C-46.99294701 104.9012581 -46.99294701 104.9012581 -48 119 C-30.08489514 113.77661335 -14.10421463 107.52229044 -4.52734375 90.36108398 C-2.52668403 86.48614671 -0.59286778 82.58091314 1.32421875 78.6640625 C7.16741859 67.07016731 14.03299609 57.94548172 26.125 52.625 C32.5770289 51.22238502 37.17121827 51.86972833 43 55 C47.34539033 58.53694562 50.52288547 62.56548239 52 68 C53.71027779 85.13732892 48.90760962 98.43109734 38.26293945 111.87060547 C24.75333977 128.33877184 5.16433547 139.28467159 -16 142 C-28.03591591 142.64638497 -39.4005532 142.45963269 -51 139 C-51.05328964 139.79427902 -51.10657928 140.58855804 -51.16148376 141.40690613 C-51.7126792 149.12957595 -52.54726489 156.76086337 -53.62890625 164.42578125 C-53.78286362 165.53938522 -53.93682098 166.6529892 -54.09544373 167.80033875 C-54.58080143 171.30491256 -55.07154863 174.8087059 -55.5625 178.3125 C-55.89554148 180.7102366 -56.22822688 183.10802268 -56.56054688 185.50585938 C-57.36958956 191.33781702 -58.1830404 197.1691464 -59 203 C-58.22946289 203.28681641 -57.45892578 203.57363281 -56.66503906 203.86914062 C-53.41272294 205.24920001 -51.34191249 207.10985315 -48.75 209.5 C-47.87859375 210.2940625 -47.0071875 211.088125 -46.109375 211.90625 C-43.53329012 214.46325277 -43.05807644 215.31760185 -42.75 218.9375 C-43 222 -43 222 -44.125 223.75 C-53.04994154 229.69996103 -67.30876517 228.99889818 -77.4375 227.1875 C-81.13042183 226.31892479 -84.10211499 225.55695736 -87 223 C-90.69651732 216.52732273 -92.63120371 209.93816685 -94.5 202.75 C-94.80043213 201.61643066 -95.10086426 200.48286133 -95.41040039 199.31494141 C-98.02215131 189.28598679 -100.14761564 179.19386673 -102 169 C-102.62946533 169.1429248 -103.25893066 169.28584961 -103.9074707 169.43310547 C-111.72644112 171.04868268 -119.22386285 171.23661971 -127.1875 171.125 C-128.42564453 171.11597656 -129.66378906 171.10695313 -130.93945312 171.09765625 C-133.95984511 171.07433276 -136.97981399 171.04160477 -140 171 C-140.12955078 172.73443359 -140.12955078 172.73443359 -140.26171875 174.50390625 C-140.99448088 181.06539973 -142.65760421 187.41429988 -144.27368164 193.80151367 C-144.80991624 195.92725745 -145.33226076 198.05608692 -145.85351562 200.18554688 C-150.9591866 220.74763168 -150.9591866 220.74763168 -156 225 C-167.10330834 229.5422625 -180.54917068 229.11432174 -192 226 C-194.39430789 224.80284605 -196.13489257 223.86510743 -198 222 C-198.62757225 218.78369224 -198.50466807 216.76673605 -196.68359375 214 C-192.92310556 209.55808106 -188.92437281 206.08980255 -184 203 C-183.34 203 -182.68 203 -182 203 C-183.13554687 194.95804758 -184.27421079 186.91654505 -185.41673851 178.87558174 C-185.94729644 175.14089797 -186.47682288 171.40607429 -187.00390625 167.67089844 C-187.51363558 164.05898674 -188.02618636 160.44748522 -188.54060745 156.83623886 C-188.73533042 155.46584885 -188.92907604 154.09531957 -189.12177658 152.72464371 C-189.98441788 146.59272233 -190.85463912 140.48852984 -192.12304688 134.42578125 C-192.82775828 131.04835951 -193.23917079 127.89449256 -193.1953125 124.4296875 C-193.18886719 123.51445312 -193.18242187 122.59921875 -193.17578125 121.65625 C-193.15902344 120.7384375 -193.14226562 119.820625 -193.125 118.875 C-193.11597656 117.91851562 -193.10695312 116.96203125 -193.09765625 115.9765625 C-193.07439827 113.65076475 -193.04172213 111.32552706 -193 109 C-196.4598713 112.1514549 -198.4877613 114.26619052 -199.4375 118.875 C-200.80198396 123.91077505 -202.54080689 128.01436315 -207 131 C-211.78077434 131.99494069 -216.29203907 130.99114967 -221 130 C-222.134375 130.0825 -223.26875 130.165 -224.4375 130.25 C-229.18743901 129.91667095 -230.85628923 128.51796205 -234 125 C-235.02273869 121.0454104 -235.29223576 118.87670727 -234 115 C-234.928125 114.7215625 -234.928125 114.7215625 -235.875 114.4375 C-238 113 -238 113 -239.4375 109.8125 C-240.13165725 105.10765639 -239.38454593 103.07680432 -237 99 C-233.86527491 95.46079425 -230.59903421 94.53345643 -226.1875 93.25 C-219.71838001 91.22047216 -216.28568891 88.12955243 -212 83 C-210.98131379 81.8106576 -209.96044262 80.62318349 -208.9375 79.4375 C-208.37933594 78.78652344 -207.82117188 78.13554687 -207.24609375 77.46484375 C-204.11253956 74.02610863 -200.80491012 70.77325926 -197.5 67.5 C-192.45036673 62.49387164 -187.57994386 57.44317936 -183 52 C-181.13017703 49.91821329 -179.26007081 47.83680473 -177.3828125 45.76171875 C-175.79261994 43.93952679 -175.79261994 43.93952679 -175 41 C-173.68 41 -172.36 41 -171 41 C-171.65841826 45.85110465 -173.01295272 50.31468394 -174.5625 54.9375 C-177.45963884 63.8504518 -179.89912886 72.86896555 -182.25 81.9375 C-182.42226105 82.59458954 -182.59452209 83.25167908 -182.77200317 83.92868042 C-185.93173993 96.01200097 -188.3571537 107.60410345 -188.3125 120.125 C-188.32861328 121.03636719 -188.34472656 121.94773437 -188.36132812 122.88671875 C-188.36865632 133.19016341 -185.73371699 142.08751417 -179 150 C-163.04300356 165.45931234 -141.20629775 166.44669033 -120.30078125 166.203125 C-99.19400303 165.68702069 -77.45196493 158.61691281 -61.625 144.25 C-53.99948001 135.96548445 -52.26988173 127.72917752 -52.40795898 116.75561523 C-52.78087171 107.97625422 -54.91607863 100.18139291 -58 92 C-58.36158203 91.01845947 -58.36158203 91.01845947 -58.73046875 90.01708984 C-65.69820764 71.38576159 -74.80109801 53.33081812 -84.69824219 36.10424805 C-85.13297852 35.34023682 -85.56771484 34.57622559 -86.015625 33.7890625 C-86.40008789 33.12600098 -86.78455078 32.46293945 -87.18066406 31.77978516 C-88 30 -88 30 -88 27 C-87.01 26.67 -86.02 26.34 -85 26 C-83.02 29.3 -81.04 32.6 -79 36 C-67.21199814 31.97917981 -55.5171071 27.73638521 -43.875 23.3125 C-42.65530518 22.84932373 -41.43561035 22.38614746 -40.17895508 21.90893555 C-37.85387641 21.0223489 -35.53100461 20.12994668 -33.21069336 19.23095703 C-31.15294341 18.44203031 -29.0864899 17.67523288 -27.01000977 16.93701172 C-26.11854248 16.61104004 -25.2270752 16.28506836 -24.30859375 15.94921875 C-23.53829834 15.67811279 -22.76800293 15.40700684 -21.97436523 15.12768555 C-18.7451514 13.28327616 -17.60732979 10.40516493 -16.0859375 7.125 C-12.86367643 0.81956827 -6.65735973 -1.15835514 0 0 Z " fill="#7E271D" transform="translate(362,243)"/>
<path d="M0 0 C34.10771462 64.11013729 34.10771462 64.11013729 26.9765625 89.66796875 C19.98812432 104.59079393 6.38014563 112.3831279 -8.45654297 117.9465332 C-32.99055616 126.68766606 -62.30054702 127.71773255 -86.43359375 116.91015625 C-97.0530169 111.44400603 -103.68627741 104.16946029 -108 93 C-111.17415128 79.41223379 -109.35329809 64.34585704 -106 51 C-105.64079994 49.40838958 -105.2855808 47.81587736 -104.93359375 46.22265625 C-102.74655125 36.47012831 -100.20244627 26.83638927 -97.375 17.25 C-97.08592773 16.24324219 -96.79685547 15.23648437 -96.49902344 14.19921875 C-96.21833008 13.27238281 -95.93763672 12.34554688 -95.6484375 11.390625 C-95.40270996 10.56594727 -95.15698242 9.74126953 -94.90380859 8.89160156 C-94.60555176 8.26737305 -94.30729492 7.64314453 -94 7 C-89.51482161 5.50494054 -86.84402432 7.65718603 -82.69140625 9.578125 C-72.78028901 13.39574053 -63.57572416 14.45681938 -53 14.3125 C-51.81921875 14.31572266 -50.6384375 14.31894531 -49.421875 14.32226562 C-38.97065863 14.2589598 -29.08558775 13.25481003 -19.375 9.25 C-18.43587769 8.86400635 -18.43587769 8.86400635 -17.4777832 8.47021484 C-12.65908735 6.42951538 -8.23047901 3.9596094 -3.85546875 1.1015625 C-2 0 -2 0 0 0 Z " fill="#E26153" transform="translate(282,286)"/>
<path d="M0 0 C1.68062825 0.31063745 3.36927944 0.58009718 5.0625 0.8125 C20.84983524 3.58852808 33.76331434 12.91478167 44 25 C49.43822199 32.8347266 54.28813263 41.25433761 54 51 C27.46442934 66.18582837 1.5134969 77.75191612 -29 82 C-30.10988281 82.1750708 -31.21976563 82.3501416 -32.36328125 82.53051758 C-38.71597695 83.35061921 -45.10417728 83.2406786 -51.5 83.25 C-52.22677948 83.25233643 -52.95355896 83.25467285 -53.70236206 83.25708008 C-66.65519919 83.27275436 -79.21729414 82.16699756 -92 80 C-95.34562619 62.57036677 -92.25111039 46.34698533 -82.37109375 31.5625 C-69.71036462 14.64236084 -50.44152638 1.72301867 -29.33251953 -1.72753906 C-20.11830964 -2.80384828 -8.56684819 -4.05230409 0 0 Z " fill="#FDE6D9" transform="translate(255,198)"/>
<path d="M0 0 C2 2 2 2 2.125 5.625 C2.08375 6.73875 2.0425 7.8525 2 9 C2.99 8.67 3.98 8.34 5 8 C8.5 7.6875 8.5 7.6875 12 8 C14 9.6875 14 9.6875 15 12 C14.75925978 15.37036311 14.41201979 16.58798021 12 19 C11.01 19 10.02 19 9 19 C9.70008089 21.99911296 9.70008089 21.99911296 11.625 23.3125 C13 25 13 25 13 28 C12 31 12 31 9.77734375 32.7109375 C6.56751206 34.2007328 5.02906604 34.05771975 1.5625 33.625 C-5.31031973 33.50064259 -9.20101238 36.20611256 -14.63671875 40.03515625 C-20.17315091 43.90704018 -26.0706675 47.16098278 -31.9375 50.5 C-39.95934623 55.08636604 -47.96080171 59.68852712 -55.81225586 64.5625 C-59.78932387 67 -59.78932387 67 -62 67 C-64.0014967 63.07115019 -65.99508916 59.13842207 -67.98144531 55.2019043 C-68.65831981 53.86324383 -69.33734421 52.52566819 -70.01855469 51.18920898 C-70.9972111 49.26827479 -71.96807558 47.34357504 -72.9375 45.41796875 C-73.52402344 44.26063232 -74.11054688 43.1032959 -74.71484375 41.91088867 C-76 39 -76 39 -76 36 C-73.49329508 35.03422616 -70.98636864 34.06904059 -68.47900391 33.10498047 C-66.21168015 32.23125708 -63.94576171 31.35387946 -61.68115234 30.47314453 C-55.53815079 28.09237189 -49.38579754 25.76279466 -43.17825317 23.55503845 C-40.08237332 22.45118247 -36.99459968 21.32556314 -33.90716553 20.19833374 C-32.39250159 19.6518905 -30.87411193 19.11566041 -29.35211182 18.58999634 C-19.73665564 15.72599005 -19.73665564 15.72599005 -13.16796875 8.7890625 C-12.78253906 7.53867188 -12.39710938 6.28828125 -12 5 C-8.32509192 0.23255168 -6.00580991 -0.79322018 0 0 Z " fill="#A53B2F" transform="translate(361,247)"/>
<path d="M0 0 C0.99 0.66 1.98 1.32 3 2 C3.1875 5.625 3.1875 5.625 3 9 C4.546875 8.87625 4.546875 8.87625 6.125 8.75 C10.69122939 9.04459544 12.65544437 9.90016795 16 13 C16.5625 16.0625 16.5625 16.0625 16 19 C14.46484375 20.68359375 14.46484375 20.68359375 13 22 C13.63615234 22.98613281 13.63615234 22.98613281 14.28515625 23.9921875 C26.57281514 43.92250016 37.2513732 73.86882059 32 97.5 C31.814375 98.3559375 31.62875 99.211875 31.4375 100.09375 C31.293125 100.7228125 31.14875 101.351875 31 102 C27.75831818 100.62155433 26.08384185 99.17726508 24.01953125 96.33984375 C23.49552734 95.62892578 22.97152344 94.91800781 22.43164062 94.18554688 C21.63016602 93.07276367 21.63016602 93.07276367 20.8125 91.9375 C19.73609908 90.46713889 18.65929735 88.9970711 17.58203125 87.52734375 C17.10999268 86.87499756 16.6379541 86.22265137 16.15161133 85.55053711 C15.08708184 84.03839858 15.08708184 84.03839858 14 83 C13.68522164 81.00923954 13.37675433 79.01726853 13.10083008 77.02075195 C11.19137002 63.30107548 8.05233212 50.60027975 1.9375 38.125 C1.60919189 37.45251221 1.28088379 36.78002441 0.94262695 36.0871582 C-0.87569996 32.56900208 -2.41587839 29.82932483 -6 28 C-8.82493199 27.60959791 -10.38838692 27.68051918 -12.921875 29.00390625 C-16.40580546 31.9741803 -18.93827182 34.62261513 -20.84765625 38.8046875 C-24.87757733 47.4342312 -24.87757733 47.4342312 -28 50 C-34.1584339 51.85552814 -40.73603491 50.8602597 -47 50 C-41.09252813 33.5565216 -24.81236018 9.00930418 -9 1 C-5.74531799 -0.084894 -3.4103976 -0.21314985 0 0 Z " fill="#FDE5D8" transform="translate(285,37)"/>
<path d="M0 0 C16.98802413 4.081207 34.57668149 17.04218897 48 28 C48 28.66 48 29.32 48 30 C47.41992188 30.25394531 46.83984375 30.50789063 46.2421875 30.76953125 C45.46101563 31.11371094 44.67984375 31.45789063 43.875 31.8125 C42.64136719 32.35197266 42.64136719 32.35197266 41.3828125 32.90234375 C38.81075628 34.0431415 38.81075628 34.0431415 35.75 35.875 C33 37 33 37 30.59375 36.28125 C27.95120203 34.97589498 25.99274112 33.52717673 23.75 31.625 C18.23860579 27.24884314 13.25446348 23.94834185 6.0625 24.0625 C2.72149264 24.73175344 2.72149264 24.73175344 1 28 C-1.36144401 40.04941942 -0.59443965 53.06712461 1.3125 65.125 C1.43012695 65.86911133 1.54775391 66.61322266 1.66894531 67.37988281 C2.21004773 70.48395625 2.77086178 73.39586839 3.89135742 76.35009766 C6.69338166 83.79295133 5.29179817 88.77498794 2.6875 96.125 C2.34009766 97.176875 1.99269531 98.22875 1.63476562 99.3125 C0.781308 101.88456409 -0.09691187 104.44503046 -1 107 C-7.37839382 104.19172578 -9.55830872 97.19551332 -12 91 C-13.76732697 85.76072655 -14.92098976 80.41673985 -16 75 C-16.22558594 73.92878906 -16.45117188 72.85757813 -16.68359375 71.75390625 C-18.07113291 63.93584077 -18.20144907 56.17478397 -18.25 48.25 C-18.2593457 47.19627197 -18.26869141 46.14254395 -18.27832031 45.05688477 C-18.25140789 38.47731535 -17.56020336 32.39363518 -16 26 C-16.804375 25.855625 -17.60875 25.71125 -18.4375 25.5625 C-21 25 -21 25 -22 24 C-22.5625 20.875 -22.5625 20.875 -22 17 C-20.02830962 15.04100291 -17.9084098 13.41490269 -15.71484375 11.7109375 C-15.14894531 11.14632812 -14.58304687 10.58171875 -14 10 C-13.79172045 6.63776466 -13.79172045 6.63776466 -15 4 C-10.46232861 -0.84018281 -6.23021145 -0.85687722 0 0 Z " fill="#FDE5D8" transform="translate(120,71)"/>
<path d="M0 0 C0.89350678 2.95141654 1.02998545 5.14009806 0.57861328 8.18261719 C0.46164093 8.99736511 0.34466858 9.81211304 0.22415161 10.65155029 C0.0908847 11.52450745 -0.0423822 12.3974646 -0.1796875 13.296875 C-0.31190704 14.20447571 -0.44412659 15.11207642 -0.58035278 16.04718018 C-1.00466367 18.94923863 -1.4395541 21.84959348 -1.875 24.75 C-2.30092311 27.63643704 -2.72470054 30.52318313 -3.14822388 33.40997314 C-3.41231884 35.2044864 -3.67822818 36.9987339 -3.94625854 38.79266357 C-4.70056025 43.85506882 -5.37575422 48.91995503 -6 54 C-6.13664062 54.83789062 -6.27328125 55.67578125 -6.4140625 56.5390625 C-6.6566963 58.93844121 -6.67879234 60.67394726 -6 63 C-3.92735077 64.95332827 -1.80358319 66.25508328 0.66796875 67.6640625 C4.37473811 69.78753842 7.37672932 72.22607577 8.8125 76.3125 C8.9053125 77.1478125 8.9053125 77.1478125 9 78 C-0.33933368 84.31778455 -13.01326572 82.51080706 -23.66015625 80.92578125 C-26.91751153 79.63697791 -28.01052504 77.86976284 -30 75 C-31.23266602 71.73291016 -31.23266602 71.73291016 -32.25390625 68.0390625 C-32.44089584 67.3714389 -32.62788544 66.70381531 -32.82054138 66.01596069 C-33.21345437 64.60384843 -33.60056495 63.19011022 -33.98217773 61.77490234 C-34.55239272 59.66244414 -35.1406325 57.55572182 -35.73242188 55.44921875 C-43.15507614 28.72421591 -43.15507614 28.72421591 -41 24 C-38.68634513 23.00363079 -36.59624075 22.28898357 -34.1875 21.625 C-20.71408359 17.49871607 -8.70891079 11.42054892 0 0 Z " fill="#A53B2F" transform="translate(306,385)"/>
<path d="M0 0 C0.61875 0.680625 1.2375 1.36125 1.875 2.0625 C12.84131443 12.90594256 26.13185102 17.2947007 41 20 C40.47253089 27.60082986 39.06946112 34.79725199 37.25 42.1875 C36.98340576 43.2801416 36.71681152 44.3727832 36.44213867 45.49853516 C30.3827371 69.8694735 30.3827371 69.8694735 26 73 C15.60117149 76.28476509 3.43037358 75.98010674 -7 73 C-7.66 72.34 -8.32 71.68 -9 71 C-8.89260744 67.58039466 -8.27728418 66.28031461 -5.85546875 63.83203125 C-4.97503906 63.16558594 -4.09460938 62.49914062 -3.1875 61.8125 C-1.87845703 60.80123047 -1.87845703 60.80123047 -0.54296875 59.76953125 C1.60504821 58.27482821 3.65506805 57.13281887 6 56 C6.2945439 48.22840458 5.3963027 40.90696426 4.125 33.25 C3.75742847 30.94797795 3.39023767 28.64589508 3.0234375 26.34375 C2.84651367 25.24933594 2.66958984 24.15492188 2.48730469 23.02734375 C1.8827399 19.27153046 1.30487302 15.51348656 0.75 11.75 C0.60046875 10.75484375 0.4509375 9.7596875 0.296875 8.734375 C-0.0213559 5.80330096 -0.05229602 2.94600921 0 0 Z " fill="#A53B2F" transform="translate(177,392)"/>
<path d="M0 0 C2.06866588 3.10299882 2.24349926 3.67950748 2.17944336 7.17333984 C2.16960922 8.01206635 2.15977509 8.85079285 2.14964294 9.7149353 C2.12004234 11.07420639 2.12004234 11.07420639 2.08984375 12.4609375 C2.0693931 14.3971326 2.04922009 16.33333065 2.02929688 18.26953125 C1.98612383 21.3082306 1.9380066 24.34673567 1.88354492 27.38525391 C1.56993564 42.63824824 1.56993564 42.63824824 4.34594727 57.56103516 C5 60 5 60 5 64 C-9.5029739 63.16328997 -24.00079977 54.85742779 -33.76953125 44.40625 C-35.59727976 40.83198624 -35.00170231 38.8637089 -34 35 C-32.66748321 31.80858449 -31.08994327 28.78622378 -29.4375 25.75 C-28.98640869 24.91315674 -28.53531738 24.07631348 -28.07055664 23.21411133 C-12.89151563 -4.47256665 -12.89151563 -4.47256665 0 0 Z " fill="#FEE5D8" transform="translate(146,210)"/>
<path d="M0 0 C7.86003386 2.75101185 14.50878863 7.91591574 21 13 C21.61085449 13.46390137 22.22170898 13.92780273 22.85107422 14.40576172 C24.81920211 15.91045416 26.75502994 17.44986547 28.6875 19 C29.31237305 19.47381104 29.93724609 19.94762207 30.58105469 20.43579102 C32.96775283 22.4063212 34.71586798 23.87256869 35.48803711 26.93652344 C35.88415657 36.79601897 28.96409436 45.42151978 22.625 52.375 C18.1833706 57.0906335 13.41600279 61.42291909 8 65 C7.67 65 7.34 65 7 65 C6.78085937 63.75347656 6.56171875 62.50695312 6.3359375 61.22265625 C3.28563393 44.54821303 -1.36066327 30.10924635 -9.74853516 15.32983398 C-13.75168917 8.16141323 -13.75168917 8.16141323 -13 4 C-9.84794243 -1.07070131 -5.40326968 -0.9600149 0 0 Z " fill="#FEE6D9" transform="translate(312,176)"/>
<path d="M0 0 C1 2 1 2 0.25 4.45703125 C-0.36875 6.11798828 -0.36875 6.11798828 -1 7.8125 C-2.95016209 13.14931836 -4.35183325 18.44973529 -5.47265625 24.0234375 C-10.32531014 47.73447157 -10.32531014 47.73447157 -20.45703125 55.7734375 C-23.753513 58.65975793 -24.26865617 60.79290554 -24.73828125 65.01953125 C-25.19663289 68.48795336 -26.63895419 70.51133009 -29 73 C-32.75 73.375 -32.75 73.375 -36 73 C-36.66 71.35 -37.32 69.7 -38 68 C-38.99 68 -39.98 68 -41 68 C-41.66 69.32 -42.32 70.64 -43 72 C-46.375 71.6875 -46.375 71.6875 -50 71 C-52.18891794 67.71662309 -52.45290607 66.80441099 -52 63 C-50.5 60.1875 -50.5 60.1875 -49 58 C-49.763125 58.061875 -50.52625 58.12375 -51.3125 58.1875 C-54 58 -54 58 -55.875 56.875 C-57 55 -57 55 -57.0625 52.125 C-55.68623061 48.07714884 -53.7108291 45.96841622 -50 44 C-48.27826511 43.61130945 -46.54780835 43.2602326 -44.8125 42.9375 C-37.649489 41.19254039 -34.11665121 36.20711882 -29.58203125 30.8046875 C-26.64331331 27.45237222 -23.43025759 24.37092297 -20.25 21.25 C-15.80211887 16.85078398 -11.46946325 12.43518706 -7.4296875 7.65234375 C-5.09556651 4.95471212 -2.5523859 2.49013258 0 0 Z " fill="#A53B2F" transform="translate(183,297)"/>
<path d="M0 0 C4.31906063 2.68704917 7.08125678 6.60940481 9.046875 11.2734375 C9.85120584 17.50961294 9.18743399 22.75038548 6.046875 28.2734375 C2.14199828 32.91707468 -1.59671433 35.8426429 -7.72265625 36.62890625 C-13.85494392 36.91430832 -18.31620016 36.44406649 -23.33203125 32.7734375 C-27.21790609 29.17783283 -29.62991161 25.13156735 -30.2265625 19.85546875 C-30.47837562 12.98871866 -29.64733174 8.43589429 -24.953125 3.2734375 C-17.08413377 -3.63130098 -9.25317851 -4.49895921 0 0 Z " fill="#F4F4F4" transform="translate(270.953125,158.7265625)"/>
<path d="M0 0 C5.70999504 2.43449401 9.27097461 6.74855145 11.640625 12.421875 C12.79089569 18.6510332 12.09712503 24.2075746 8.91015625 29.703125 C5.7880695 33.92995015 1.7809392 37.1069109 -3.359375 38.421875 C-9.80296125 39.22732328 -15.11396345 38.40001275 -20.359375 34.421875 C-25.71154042 28.63920932 -27.74724906 23.85761003 -27.6328125 15.984375 C-26.9306917 9.40450011 -22.87423657 5.61086676 -17.9453125 1.5859375 C-12.97342146 -2.06338154 -5.77472138 -1.41499795 0 0 Z " fill="#F5F5F5" transform="translate(187.359375,173.578125)"/>
<path d="M0 0 C0.99 0 1.98 0 3 0 C6.06844334 11.31488483 6.57128385 22.38645629 1 33 C-2.64123119 38.73711227 -6.86764505 42.25073462 -13.328125 44.43359375 C-20.33700873 45.91939512 -26.1151882 44.83391105 -32.3125 41.3125 C-36.40696015 38.60245062 -39.79131738 35.71531672 -43 32 C-43 31.34 -43 30.68 -43 30 C-41.88882813 29.63648438 -40.77765625 29.27296875 -39.6328125 28.8984375 C-23.54804514 23.51633825 -10.74112324 16.71523147 -1.5078125 1.90625 C-1.01023437 1.2771875 -0.51265625 0.648125 0 0 Z " fill="#0F090A" transform="translate(258,209)"/>
<path d="M0 0 C4.55555556 0.55555556 4.55555556 0.55555556 6 2 C6.25329033 4.73616096 6.43278471 7.44426188 6.5625 10.1875 C6.6042334 11.04649902 6.6459668 11.90549805 6.68896484 12.79052734 C7.0487683 21.23342548 7.10971091 29.67594438 7.125 38.125 C7.1275882 38.79864594 7.13017639 39.47229187 7.13284302 40.16635132 C7.1386854 42.09266285 7.13592569 44.01899462 7.1328125 45.9453125 C7.13168457 47.06437988 7.13055664 48.18344727 7.12939453 49.33642578 C7 52 7 52 6 54 C4.02 54 2.04 54 0 54 C-1.59412284 50.81175432 -1.10174735 47.37103338 -1.0625 43.875 C-1.05798828 43.12089844 -1.05347656 42.36679688 -1.04882812 41.58984375 C-1.03703499 39.72652873 -1.01909942 37.86325445 -1 36 C-5.62 36.33 -10.24 36.66 -15 37 C-14.98839844 38.35996094 -14.97679687 39.71992187 -14.96484375 41.12109375 C-14.95546738 42.8932278 -14.94636702 44.66536333 -14.9375 46.4375 C-14.92912109 47.33533203 -14.92074219 48.23316406 -14.91210938 49.15820312 C-14.90888672 50.01220703 -14.90566406 50.86621094 -14.90234375 51.74609375 C-14.89710693 52.53685303 -14.89187012 53.3276123 -14.88647461 54.14233398 C-15 56 -15 56 -16 57 C-18.4375 57.1875 -18.4375 57.1875 -21 57 C-26.72058946 51.27941054 -24.38717976 32.97433054 -24.61254883 24.94873047 C-24.68839322 22.344328 -24.77880399 19.74065394 -24.86914062 17.13671875 C-24.91756135 15.47398415 -24.96511996 13.81122416 -25.01171875 12.1484375 C-25.04077805 11.37349945 -25.06983734 10.5985614 -25.09977722 9.80014038 C-25.19045336 5.95455603 -25.1904563 4.28568444 -23 1 C-20.5 0.625 -20.5 0.625 -18 1 C-15.70244078 4.44633882 -15.76356024 5.71068391 -15.8046875 9.76171875 C-15.81435547 11.43911133 -15.81435547 11.43911133 -15.82421875 13.15039062 C-15.84097656 14.31763672 -15.85773438 15.48488281 -15.875 16.6875 C-15.88402344 17.86634766 -15.89304687 19.04519531 -15.90234375 20.25976562 C-15.92593577 23.17338026 -15.9588546 26.08658892 -16 29 C-15.34 28.67 -14.68 28.34 -14 28 C-11.9625237 27.77141886 -9.91959697 27.58975722 -7.875 27.4375 C-6.77929688 27.35371094 -5.68359375 27.26992187 -4.5546875 27.18359375 C-3.71164062 27.12300781 -2.86859375 27.06242187 -2 27 C-2.01047363 26.25314941 -2.02094727 25.50629883 -2.03173828 24.73681641 C-2.0732077 21.36624492 -2.09929729 17.995727 -2.125 14.625 C-2.14175781 13.449375 -2.15851563 12.27375 -2.17578125 11.0625 C-2.18222656 9.94101563 -2.18867188 8.81953125 -2.1953125 7.6640625 C-2.20578613 6.62717285 -2.21625977 5.5902832 -2.22705078 4.52197266 C-2 2 -2 2 0 0 Z " fill="#E0A58F" transform="translate(371,73)"/>
<path d="M0 0 C0.99 0.66 1.98 1.32 3 2 C3.1875 5.625 3.1875 5.625 3 9 C4.546875 8.87625 4.546875 8.87625 6.125 8.75 C10.69122939 9.04459544 12.65544437 9.90016795 16 13 C16.5625 16.0625 16.5625 16.0625 16 19 C14.46484375 20.68359375 14.46484375 20.68359375 13 22 C13.63615234 22.98613281 13.63615234 22.98613281 14.28515625 23.9921875 C26.57281514 43.92250016 37.2513732 73.86882059 32 97.5 C31.814375 98.3559375 31.62875 99.211875 31.4375 100.09375 C31.293125 100.7228125 31.14875 101.351875 31 102 C29.02 101.01 29.02 101.01 27 100 C27.23783203 98.98099609 27.23783203 98.98099609 27.48046875 97.94140625 C31.64460717 74.36549476 22.61261199 45.30220832 9.4453125 25.68359375 C8.76082031 24.75740234 8.76082031 24.75740234 8.0625 23.8125 C6 21 6 21 6 18 C7.65 17.67 9.3 17.34 11 17 C11 16.34 11 15.68 11 15 C7.99686252 13.49843126 5.20932478 13.90718796 1.875 13.9375 C0.59367187 13.94652344 -0.68765625 13.95554687 -2.0078125 13.96484375 C-2.99523437 13.97644531 -3.98265625 13.98804688 -5 14 C-5 12.68 -5 11.36 -5 10 C-4.01 9.34 -3.02 8.68 -2 8 C-1.27617533 5.94074861 -1.27617533 5.94074861 -1 4 C-2.34054068 4.32582586 -3.67224888 4.68794859 -5 5.0625 C-5.7425 5.25972656 -6.485 5.45695312 -7.25 5.66015625 C-14.70674575 9.29320141 -19.72809654 15.76947435 -24.375 22.4375 C-24.92373779 23.21013184 -25.47247559 23.98276367 -26.0378418 24.77880859 C-31.34030043 32.32257599 -36.23666239 40.10769796 -41 48 C-37.7 48.33 -34.4 48.66 -31 49 C-31 49.33 -31 49.66 -31 50 C-36.28 50 -41.56 50 -47 50 C-40.37379375 33.43448438 -25.27409061 9.24318068 -9 1 C-5.74531799 -0.084894 -3.4103976 -0.21314985 0 0 Z " fill="#E1A791" transform="translate(285,37)"/>
<path d="M0 0 C16.98802413 4.081207 34.57668149 17.04218897 48 28 C48 28.66 48 29.32 48 30 C46.35 30.66 44.7 31.32 43 32 C42.505 30.515 42.505 30.515 42 29 C40.54812308 27.72459854 40.54812308 27.72459854 38.7109375 26.6171875 C38.02394775 26.17640869 37.33695801 25.73562988 36.62915039 25.28149414 C35.88528076 24.81735107 35.14141113 24.35320801 34.375 23.875 C33.61243896 23.39216553 32.84987793 22.90933105 32.06420898 22.41186523 C29.71560605 20.93118723 27.35862744 19.46464357 25 18 C23.95465088 17.34330322 23.95465088 17.34330322 22.88818359 16.67333984 C7.61432593 6.99431368 7.61432593 6.99431368 -10 5 C-9.67 5.99 -9.34 6.98 -9 8 C-6.49552484 9.21869929 -6.49552484 9.21869929 -4 10 C-4 10.99 -4 11.98 -4 13 C-4.68707031 13.18175781 -5.37414062 13.36351563 -6.08203125 13.55078125 C-7.43361328 13.92783203 -7.43361328 13.92783203 -8.8125 14.3125 C-10.15248047 14.67794922 -10.15248047 14.67794922 -11.51953125 15.05078125 C-14.10295579 16.03939883 -15.30970288 16.84047213 -17 19 C-17.33 19.99 -17.66 20.98 -18 22 C-16.02 21.67 -14.04 21.34 -12 21 C-10.83199611 24.4722919 -11.1952586 26.92924077 -11.91796875 30.48828125 C-13.04788431 36.76802259 -13.34753645 42.81637095 -13.3125 49.1875 C-13.30404053 50.82150757 -13.30404053 50.82150757 -13.29541016 52.48852539 C-13.05438065 68.65778726 -10.30929983 86.78595005 -1.74609375 100.8359375 C-1.16988281 101.88007813 -0.59367187 102.92421875 0 104 C-0.33 104.99 -0.66 105.98 -1 107 C-5.93454491 105.29022347 -7.23717659 101.45794066 -9.41479492 97.00390625 C-12.72042765 89.91875949 -14.47824944 82.63934073 -16 75 C-16.22558594 73.92878906 -16.45117188 72.85757813 -16.68359375 71.75390625 C-18.07113291 63.93584077 -18.20144907 56.17478397 -18.25 48.25 C-18.2593457 47.19627197 -18.26869141 46.14254395 -18.27832031 45.05688477 C-18.25140789 38.47731535 -17.56020336 32.39363518 -16 26 C-16.804375 25.855625 -17.60875 25.71125 -18.4375 25.5625 C-21 25 -21 25 -22 24 C-22.5625 20.875 -22.5625 20.875 -22 17 C-20.02830962 15.04100291 -17.9084098 13.41490269 -15.71484375 11.7109375 C-15.14894531 11.14632812 -14.58304687 10.58171875 -14 10 C-13.79172045 6.63776466 -13.79172045 6.63776466 -15 4 C-10.46232861 -0.84018281 -6.23021145 -0.85687722 0 0 Z " fill="#E1A792" transform="translate(120,71)"/>
<path d="M0 0 C4.61482052 2.52509047 7.41694364 5.93000634 9.3125 10.8125 C9.45208857 13.43676505 9.50181369 15.94542747 9.4375 18.5625 C9.42847656 19.25988281 9.41945313 19.95726562 9.41015625 20.67578125 C9.38669888 22.38816958 9.35083104 24.10038004 9.3125 25.8125 C-3.09584704 26.39718651 -13.61523316 24.49824093 -23.6875 16.8125 C-25.46875 14.62109375 -25.46875 14.62109375 -26.6875 12.8125 C-24.13952375 6.89755513 -18.94965247 3.24365768 -13.625 -0.125 C-8.6423974 -1.92721796 -5.00719875 -1.61248773 0 0 Z " fill="#A43B2F" transform="translate(400.6875,300.1875)"/>
<path d="M0 0 C0.70125 0.721875 1.4025 1.44375 2.125 2.1875 C11.89593769 11.8495693 21.4680179 15.60168041 35 18 C33.42921185 21.68233943 31.13566869 24.25546115 28.4375 27.1875 C27.63183594 28.06792969 26.82617188 28.94835937 25.99609375 29.85546875 C24 32 24 32 23 33 C13.8929816 33 7.32530565 29.16281653 0.81640625 22.8984375 C-6.06281162 15.26121849 -6.06281162 15.26121849 -5.9375 10.75 C-4.58198802 6.77383154 -2.33439266 3.47144 0 0 Z " fill="#A53B2F" transform="translate(365,329)"/>
<path d="M0 0 C2.70988866 1.14649135 4.41340929 2.37403698 6.625 4.375 C15.56143003 11.83669896 26.89546944 12.08067067 38 13 C34.67909715 25.12953876 34.67909715 25.12953876 32 28 C23.68757353 29.38540441 14.22036356 25.82149313 7.15234375 21.578125 C3.09767236 18.60518989 -0.34917559 15.29286287 -3 11 C-3.14060428 6.71156933 -2.19752277 3.66253795 0 0 Z " fill="#E06052" transform="translate(371,316)"/>
<path d="M0 0 C6.55240515 3.82446505 10.65379478 9.22021984 13.375 16.25 C14.35183974 24.30892787 13.14333343 29.47616738 8.625 36.3125 C3.30826871 42.01469431 -2.04635839 44.27316245 -9.6875 44.5625 C-15.56339919 44.48428504 -20.03649676 42.6720949 -25.0625 39.75 C-30.3279456 34.19993572 -32.68940405 28.32816049 -33 20.6875 C-32.69085964 13.57727175 -30.56213933 9.55771932 -25.66015625 4.56640625 C-18.4488431 -2.01371975 -9.16456281 -4.29534538 0 0 Z M-27.17578125 11.62890625 C-30.2689846 15.97148164 -29.89635281 21.22742111 -29.375 26.3125 C-27.52931724 33.00163052 -23.21805037 36.84506354 -17.375 40.3125 C-11.85042882 42.15402373 -6.46494339 42.1294855 -1.125 39.6875 C4.38604023 36.58067852 7.58249911 32.30679608 9.625 26.3125 C10.55250613 20.42640341 10.25884668 15.52711207 7.125 10.375 C3.90694013 6.19900603 0.77765819 3.60925231 -4.375 2.3125 C-15.02427426 0.98134072 -20.36253514 3.59964771 -27.17578125 11.62890625 Z " fill="#130D0C" transform="translate(189.375,170.6875)"/>
<path d="M0 0 C0.90105469 0.01804688 1.80210937 0.03609375 2.73046875 0.0546875 C3.41753906 0.07789063 4.10460937 0.10109375 4.8125 0.125 C4.8125 3.23727195 4.35622951 6.06652152 3.8125 9.125 C6.60073655 10.1576802 7.6802274 10.17009293 10.5625 9.1875 C11.305 8.836875 12.0475 8.48625 12.8125 8.125 C13.23063284 14.18792614 12.94524522 17.32207988 8.8125 22.125 C5.35057741 25.00993549 2.32748173 25.6598575 -2.19140625 25.48046875 C-5.54208518 24.8837725 -7.64373604 23.30536911 -10.1875 21.125 C-12.93142056 16.71781253 -12.86528825 12.16349822 -12.1875 7.125 C-9.0688188 1.96304492 -6.01276756 -0.15617578 0 0 Z " fill="#050505" transform="translate(183.1875,179.875)"/>
<path d="M0 0 C6.35637358 2.17616658 11.84369189 6.15282327 15.01171875 12.22265625 C16.98231402 18.68798004 16.93601538 26.70372823 14.20703125 32.94140625 C10.66525732 38.80234888 5.2228707 43.41093964 -1.29296875 45.50390625 C-8.34767235 46.41078892 -14.53028135 45.86847329 -20.29296875 41.50390625 C-25.25167321 36.80979669 -28.81010092 32.42784274 -29.6640625 25.48828125 C-29.81712526 18.03322427 -29.34687783 12.26489894 -24.29296875 6.50390625 C-16.63016797 0.2547601 -9.89860025 -2.14160517 0 0 Z M-22.16796875 9.50390625 C-26.47444771 15.58364126 -26.98149771 20.10221995 -26.29296875 27.50390625 C-23.99507093 34.03477375 -19.38934877 38.38072459 -13.29296875 41.50390625 C-6.89635603 42.48324971 -0.63276868 42.15270058 5.01953125 38.84375 C9.92704402 34.94727574 12.25014189 30.34177687 12.98046875 24.20703125 C13.25323211 17.61874711 11.96593813 13.5584331 7.70703125 8.50390625 C3.21782988 4.12981261 -0.98583384 2.72717737 -7.16796875 2.12890625 C-13.24066087 2.31468651 -18.21553552 4.93716522 -22.16796875 9.50390625 Z " fill="#110C0B" transform="translate(267.29296875,153.49609375)"/>
<path d="M0 0 C0.66 0.66 1.32 1.32 2 2 C1.01 3.485 1.01 3.485 0 5 C0.3121764 7.64632287 0.3121764 7.64632287 1 10 C3.64 9.67 6.28 9.34 9 9 C9.35818324 15.08911505 8.4314514 18.1633067 4.5 22.75 C1.43137536 25.3071872 -2.07087778 25.33495185 -5.93359375 25.28515625 C-9.35340256 24.81323556 -11.4265947 23.20577598 -14 21 C-16.72687748 16.6051356 -16.81382033 12.02127146 -16 7 C-11.24923848 0.83684992 -7.41737345 -0.47094435 0 0 Z " fill="#040404" transform="translate(261,165)"/>
<path d="M0 0 C0.38671875 0.80824219 0.7734375 1.61648438 1.171875 2.44921875 C1.69265625 3.51785156 2.2134375 4.58648437 2.75 5.6875 C3.26046875 6.74324219 3.7709375 7.79898437 4.296875 8.88671875 C6.90096935 13.64695543 9.54195788 17.06614209 14.25 19.8125 C14.95640625 20.23144531 15.6628125 20.65039062 16.390625 21.08203125 C17.18726563 21.53642578 17.18726563 21.53642578 18 22 C14.71196932 24.19202046 11.91745739 25.04258616 8.125 26.125 C6.91070312 26.47820312 5.69640625 26.83140625 4.4453125 27.1953125 C1.42121643 27.90162065 -0.92900978 28.38866365 -4 28 C-8.79014014 22.38869298 -10.69386579 15.46470284 -10.59375 8.15625 C-9.59055213 4.51305775 -6.98898293 3.00884355 -3.9453125 0.99609375 C-2 0 -2 0 0 0 Z " fill="#A43B2F" transform="translate(347,353)"/>
<path d="M0 0 C1.26171875 1.7578125 1.26171875 1.7578125 2.6875 4.125 C8.67165314 13.27302358 16.03413036 16.77387182 26 21 C16.26613094 28.9035689 16.26613094 28.9035689 11.0625 29.125 C2.82902946 26.1004598 -2.4704241 20.0591518 -6.3125 12.375 C-7.11195642 9.61324147 -7.4990836 7.85190626 -7 5 C-2.77777778 0 -2.77777778 0 0 0 Z " fill="#DF6052" transform="translate(357,344)"/>
<path d="M0 0 C2.26953125 1.34765625 2.26953125 1.34765625 4 3 C4.80951528 7.04757639 4.23082639 8.63933377 2 12.125 C-2.35592656 16.77458453 -7.37591762 19.19637517 -13.75 19.4375 C-16.46260358 19.29226561 -18.0435138 18.98089638 -20.5625 17.875 C-22 16 -22 16 -22.625 13.25 C-21.53297546 7.5714724 -17.86134771 4.31140407 -13.25 1.0625 C-8.85327817 -0.37488983 -4.58039674 -0.77095787 0 0 Z " fill="#E0A48E" transform="translate(191,136)"/>
<path d="M0 0 C3.6346913 1.43495405 6.52978752 3.28154628 8.80078125 6.4609375 C9.30078125 9.5234375 9.30078125 9.5234375 8.80078125 12.4609375 C5.56853505 15.6931837 2.09136147 16.62284719 -2.38671875 16.7734375 C-8.60302925 16.70256751 -12.85244851 14.17808645 -17.76171875 10.5859375 C-19.19921875 8.4609375 -19.19921875 8.4609375 -19.19921875 5.3984375 C-16.43158914 -2.73147448 -7.08473422 -1.73657784 0 0 Z " fill="#E0A38E" transform="translate(244.19921875,128.5390625)"/>
<path d="M0 0 C6.5715258 3.22539455 12.60267276 7.05245003 18 12 C17.67 12.99 17.34 13.98 17 15 C12.28453796 13.33962604 9.08811488 10.8197011 5.28125 7.65625 C0.90455471 4.47864931 -2.63868325 3.75063643 -8 4 C-13.25450621 14.50901243 -9.61496602 35.90471139 -6.65625 47.0546875 C-5.90282912 50.43611215 -5.89613732 53.54656576 -6 57 C-6.66 57 -7.32 57 -8 57 C-10.45329111 51.79792332 -11.82035892 46.98844056 -12.6875 41.3125 C-12.81342529 40.49668457 -12.93935059 39.68086914 -13.0690918 38.84033203 C-13.93559017 32.6815643 -14.28730649 26.59193707 -14.3125 20.375 C-14.32059692 19.16904175 -14.32059692 19.16904175 -14.32885742 17.9387207 C-14.25710077 11.92551369 -14.13962742 4.79797432 -10.375 -0.125 C-6.63314328 -1.50357879 -3.70515364 -1.18708806 0 0 Z " fill="#842F25" transform="translate(133,95)"/>
<path d="M0 0 C8.04275167 3.42561645 10.85290034 12.04202052 13.98828125 19.6953125 C17.54210025 29.28561841 20.56308663 39.01439648 20.4375 49.3125 C20.42847656 50.27929688 20.41945313 51.24609375 20.41015625 52.2421875 C20.39855469 52.96664062 20.38695312 53.69109375 20.375 54.4375 C17.34227063 51.94842243 16.76233178 49.81634005 16.015625 46.01953125 C15.67785034 44.3955542 15.67785034 44.3955542 15.33325195 42.73876953 C15.09952881 41.58747559 14.86580566 40.43618164 14.625 39.25 C10.97015286 21.02839338 10.97015286 21.02839338 1.375 5.4375 C-1.10618118 4.82809087 -1.10618118 4.82809087 -3.625 5.4375 C-9.76051284 10.06232501 -13.25899749 17.73015434 -16.625 24.4375 C-17.615 24.4375 -18.605 24.4375 -19.625 24.4375 C-18.55999877 15.25691978 -12.75553903 7.2780649 -5.6015625 1.57421875 C-3.625 0.4375 -3.625 0.4375 0 0 Z " fill="#853127" transform="translate(277.625,63.5625)"/>
<path d="M0 0 C0.66 0 1.32 0 2 0 C2 3.3 2 6.6 2 10 C1.28714844 10.3403125 0.57429688 10.680625 -0.16015625 11.03125 C-10.94177153 16.48735679 -16.21846696 22.53796198 -20 34 C-25.31994898 33.48098059 -28.60448524 31.90269843 -33 29 C-34.04028726 27.69785554 -35.04982454 26.36928608 -36 25 C-35.03320312 24.64808594 -34.06640625 24.29617187 -33.0703125 23.93359375 C-24.88658391 20.86509055 -17.8985778 17.48514739 -11 12 C-10.41734375 11.56816406 -9.8346875 11.13632813 -9.234375 10.69140625 C-6.36999935 8.48525834 -4.28751193 6.13451 -2.25 3.1875 C-1.5075 2.135625 -0.765 1.08375 0 0 Z " fill="#7C1527" transform="translate(257,216)"/>
<path d="M0 0 C-0.28262944 6.50047717 -2.7198005 12.05693775 -7 17 C-9.34375 18.046875 -9.34375 18.046875 -12 18 C-14.859375 16.3046875 -14.859375 16.3046875 -17.75 13.875 C-18.71421875 13.08867187 -19.6784375 12.30234375 -20.671875 11.4921875 C-23.1275792 8.86343032 -23.72382234 7.52754188 -24 4 C-16.3500281 0.43001311 -8.32553205 -0.26856555 0 0 Z " fill="#080706" transform="translate(236,201)"/>
<path d="M0 0 C4.55555556 0.55555556 4.55555556 0.55555556 6 2 C6.25297599 5.76402762 6.18522937 9.54098037 6.1875 13.3125 C6.19974609 14.37146484 6.21199219 15.43042969 6.22460938 16.52148438 C6.22750977 18.05192383 6.22750977 18.05192383 6.23046875 19.61328125 C6.23457764 20.54954346 6.23868652 21.48580566 6.24291992 22.45043945 C5.99069949 25.09761326 5.34525753 26.72969047 4 29 C1.625 29.125 1.625 29.125 -1 29 C-3 27 -3 27 -3.23046875 24.890625 C-2.87218045 2.87218045 -2.87218045 2.87218045 0 0 Z " fill="#E0A58F" transform="translate(391,97)"/>
<path d="M0 0 C0.03867187 1.01707031 0.03867187 1.01707031 0.078125 2.0546875 C0.50974256 9.13713934 2.0933513 14.53036258 5 21 C0.71 21 -3.58 21 -8 21 C-10.26277372 14.21167883 -10.26277372 14.21167883 -10.1875 9.75 C-10.18105469 8.89921875 -10.17460937 8.0484375 -10.16796875 7.171875 C-10 5 -10 5 -9 3 C-7.1875 2.1484375 -7.1875 2.1484375 -5 1.375 C-4.278125 1.11460937 -3.55625 0.85421875 -2.8125 0.5859375 C-1 0 -1 0 0 0 Z " fill="#DD5E50" transform="translate(334,360)"/>
<path d="M0 0 C0.66 0.33 1.32 0.66 2 1 C1.78320856 4.79385021 1.0563797 5.9436203 -1.6875 8.6875 C-5.99013879 11.96079936 -10.55639282 13.60484524 -16 13 C-16.66 12.34 -17.32 11.68 -18 11 C-17.78089166 8.42808545 -17.22156351 7.24258364 -15.4765625 5.33203125 C-14.86554688 4.83058594 -14.25453125 4.32914063 -13.625 3.8125 C-13.01914063 3.30332031 -12.41328125 2.79414063 -11.7890625 2.26953125 C-8.02684499 -0.40016458 -4.46020301 -0.1621892 0 0 Z " fill="#FDE4D7" transform="translate(190,139)"/>
<path d="M0 0 C5.3327397 2.45460041 5.3327397 2.45460041 6.5078125 5.26171875 C6.58515625 6.24398437 6.58515625 6.24398437 6.6640625 7.24609375 C3.92044238 9.98971387 2.24206636 9.57739508 -1.5859375 9.62109375 C-7.20397356 9.55887851 -10.20071846 9.02686544 -14.3359375 5.24609375 C-13.9609375 2.80859375 -13.9609375 2.80859375 -13.3359375 0.24609375 C-9.23756598 -1.80309201 -4.28035283 -1.38145166 0 0 Z " fill="#FDE4D7" transform="translate(243.3359375,131.75390625)"/>
<path d="M0 0 C-0.51392596 6.8523462 -3.89533796 12.31829607 -8.875 16.9375 C-12.37076883 19.24470743 -14.85546528 19.75132792 -19 20 C-16.41110589 11.16517253 -11.9285265 5.35090628 -3.84375 0.78125 C-2 0 -2 0 0 0 Z " fill="#E9284B" transform="translate(259,230)"/>
<path d="M0 0 C2.85706997 2.39625223 2.98197847 3.82879548 3.375 7.5625 C3 11 3 11 1.8125 12.9375 C-0.75574742 14.44302435 -2.06308461 14.55941245 -5 14 C-7.8125 11.9375 -7.8125 11.9375 -10 9 C-10.48990445 5.44819276 -10.63452763 3.19440494 -8.9375 0 C-5.73276125 -1.65405871 -3.38694881 -0.90721843 0 0 Z " fill="#E06052" transform="translate(361,260)"/>
<path d="M0 0 C1.32 0.33 2.64 0.66 4 1 C3.67 10.24 3.34 19.48 3 29 C1.68 28.67 0.36 28.34 -1 28 C-1.87078259 23.47889678 -2.16394645 19.16486441 -2.1875 14.5625 C-2.20167969 13.30566406 -2.21585938 12.04882812 -2.23046875 10.75390625 C-1.98767561 6.79925868 -1.22245831 3.74468455 0 0 Z " fill="#EF8378" transform="translate(233,312)"/>
<path d="M0 0 C2.31 0 4.62 0 7 0 C7.33 4.95 7.66 9.9 8 15 C4.7 14.34 1.4 13.68 -2 13 C-1.48041715 8.62065881 -0.94324258 4.31196609 0 0 Z " fill="#A43B2F" transform="translate(314,365)"/>
<path d="M0 0 C1.98 0.495 1.98 0.495 4 1 C6.63537118 8.90611355 6.17981101 16.76865163 6 25 C5.01 25.33 4.02 25.66 3 26 C2.29876984 22.4192122 1.6164242 18.8350783 0.9375 15.25 C0.73833984 14.23421875 0.53917969 13.2184375 0.33398438 12.171875 C0.15029297 11.1921875 -0.03339844 10.2125 -0.22265625 9.203125 C-0.39547119 8.30239258 -0.56828613 7.40166016 -0.74633789 6.47363281 C-1.000207 3.9979814 -0.7687064 2.34682951 0 0 Z " fill="#EF8378" transform="translate(242,309)"/>
<path d="M0 0 C0.99 0.33 1.98 0.66 3 1 C2.37727768 8.4071181 1.29512034 15.68194135 0 23 C-1.32 23 -2.64 23 -4 23 C-4.36393957 15.15508028 -3.97030338 8.34111249 -1 1 C-0.67 0.67 -0.34 0.34 0 0 Z " fill="#EF8277" transform="translate(224,310)"/>
<path d="M0 0 C3 0.125 3 0.125 4 1.125 C4.07205511 2.81108966 4.08386068 4.50000659 4.0625 6.1875 C4.05347656 7.10660156 4.04445313 8.02570313 4.03515625 8.97265625 C4.02355469 9.68292969 4.01195312 10.39320312 4 11.125 C1.6875 12.25 1.6875 12.25 -1 13.125 C-1.99 12.465 -2.98 11.805 -4 11.125 C-4.328125 8.77734375 -4.328125 8.77734375 -4.25 6.0625 C-4.23453125 5.16402344 -4.2190625 4.26554687 -4.203125 3.33984375 C-3.88882751 -0.08720776 -3.5241898 0.14684124 0 0 Z " fill="#E0A58E" transform="translate(394,80.875)"/>
<path d="M0 0 C1.65 0 3.3 0 5 0 C5 4.95 5 9.9 5 15 C4.01 15 3.02 15 2 15 C0.53329887 9.77487721 -0.22577402 5.4185766 0 0 Z " fill="#EE8176" transform="translate(223,341)"/>
<path d="M0 0 C0.99 0.33 1.98 0.66 3 1 C3 4.96 3 8.92 3 13 C1.68 12.67 0.36 12.34 -1 12 C-2.11445498 9.77109005 -2.16480286 8.46944894 -2.1875 6 C-2.20167969 5.29875 -2.21585938 4.5975 -2.23046875 3.875 C-2 2 -2 2 0 0 Z " fill="#EE8176" transform="translate(235,354)"/>
<path d="M0 0 C1.32 0.33 2.64 0.66 4 1 C4.02705729 2.77074917 4.04642195 4.54161711 4.0625 6.3125 C4.07410156 7.29863281 4.08570313 8.28476562 4.09765625 9.30078125 C4 12 4 12 3 15 C2.01 14.67 1.02 14.34 0 14 C0 9.38 0 4.76 0 0 Z " fill="#EF8378" transform="translate(242,342)"/>
</svg>
